<svg width="164" height="40" viewBox="0 0 164 40" fill="none" xmlns="http://www.w3.org/2000/svg">
<g clip-path="url(#clip0_12644_15744)">
<path d="M0 0H39.7597L39.7567 39.8825C39.7567 39.8937 39.7526 39.9044 39.7452 39.9123C39.7379 39.9202 39.7279 39.9247 39.7175 39.9247H38.2109C38.2062 39.9247 38.2015 39.9236 38.1972 39.9216C38.1928 39.9195 38.1889 39.9165 38.1856 39.9128C38.1823 39.909 38.1797 39.9045 38.178 39.8995C38.1763 39.8946 38.1754 39.8893 38.1755 39.884C38.2358 35.3996 36.7879 29.8448 31.71 28.678C27.5593 27.7235 23.5985 29.2188 21.9021 33.261C21.0388 35.3175 20.638 37.6294 20.5424 39.875C20.5417 39.8883 20.5379 39.9009 20.5316 39.9101C20.5253 39.9194 20.517 39.9246 20.5085 39.9247H19.2279C19.2153 39.9246 19.2033 39.9191 19.1943 39.9093C19.1853 39.8994 19.1801 39.886 19.1797 39.8719C19.138 38.1474 18.8942 36.4532 18.4482 34.7895C17.6143 31.6821 15.7959 29.3213 12.5273 28.6275C11.0513 28.3141 9.58694 28.3312 8.13409 28.6787C3.1194 29.8772 1.52994 35.3951 1.54124 39.8817C1.54124 39.8921 1.53727 39.9021 1.53021 39.9094C1.52315 39.9168 1.51357 39.9209 1.50358 39.9209L0 39.9013V0ZM38.2275 3.84633C38.2275 3.08048 38.225 2.32919 38.22 1.59247C38.2198 1.57462 38.2128 1.55757 38.2005 1.54502C38.1882 1.53247 38.1717 1.52543 38.1544 1.52542H1.58192C1.57193 1.52542 1.56235 1.52939 1.55529 1.53646C1.54822 1.54352 1.54426 1.5531 1.54426 1.56309L1.5435 32.7684C1.5435 32.8497 1.55907 32.855 1.59021 32.7842C2.83917 29.9247 5.11186 27.9021 8.19134 27.2874C9.67533 26.9911 11.1433 26.9805 12.5951 27.2557C16.4437 27.9842 18.8814 30.8557 19.8652 34.5296C19.8675 34.5384 19.8718 34.5463 19.8775 34.5518C19.8831 34.5573 19.8897 34.5601 19.896 34.5597C19.9076 34.5592 19.9154 34.5519 19.9194 34.5379C21.0667 30.5348 23.8222 27.6226 28.0701 27.1428C32.62 26.6283 36.2365 28.4603 38.1868 32.6328C38.2139 32.691 38.225 32.6863 38.22 32.6185C38.1936 32.2539 38.2222 31.7718 38.2222 31.5194C38.2277 22.295 38.2295 13.0707 38.2275 3.84633Z" fill="#19406c"/>
<path d="M82.2641 0L87.0483 0.000753296C86.6309 0.232768 86.4223 0.565223 86.4223 0.998117C86.4203 5.79309 86.4208 10.5883 86.4238 15.3838C86.4238 15.3946 86.4275 15.4049 86.4342 15.4126C86.4408 15.4202 86.4498 15.4245 86.4592 15.4245L95.4942 15.426C95.5344 15.426 95.5357 15.4099 95.498 15.3778C93.8995 14.0264 93.2697 11.7303 94.298 9.84105C94.8901 8.75329 96.0163 7.95028 97.1831 7.55706C98.0961 7.24972 99.4392 7.16309 100.395 7.17137C102.969 7.19448 105.135 7.17841 106.892 7.12316C107.387 7.1081 107.701 6.7646 108.019 6.43766C108.086 6.36736 108.11 6.38041 108.091 6.47684L107.572 9.02072C107.568 9.03888 107.558 9.05524 107.544 9.06694C107.53 9.07864 107.511 9.08494 107.493 9.08475C105.014 9.05913 102.523 9.07646 100.019 9.13672C99.0759 9.15932 98.3216 9.53974 97.7556 10.278C97.208 10.9928 97.156 11.8056 97.3406 12.6674C97.6183 13.9616 98.3527 14.8535 99.5439 15.3431C99.675 15.3969 99.8209 15.4237 99.9816 15.4237C102.952 15.4237 105.924 15.4478 108.893 15.4026C110.239 15.3823 111.731 15.3341 112.535 14.061C112.578 13.9937 112.592 14.002 112.576 14.0859L111.982 17.3077C111.979 17.3234 111.97 17.3375 111.957 17.3477C111.943 17.3579 111.927 17.3635 111.909 17.3635C91.5527 17.3635 71.1861 17.3577 50.8095 17.3461C50.2189 17.3456 49.6288 17.3326 49.0392 17.307C46.2445 17.1842 44.2159 15.4855 44.2159 12.5612C44.2159 11.1892 44.2096 9.81795 44.197 8.44746C44.1918 7.82222 44.0637 7.43352 43.4664 7.22712C43.4422 7.21908 43.4307 7.20904 43.4317 7.19699C43.432 7.19095 43.4376 7.18521 43.4473 7.181C43.457 7.17678 43.47 7.17441 43.4837 7.17439L48.5496 7.17514C48.5544 7.17514 48.5593 7.17609 48.5637 7.17789C48.5682 7.17969 48.572 7.18229 48.5749 7.18542C48.5778 7.18855 48.5797 7.1921 48.5803 7.19571C48.5808 7.19933 48.5801 7.20289 48.5782 7.20603C48.5727 7.21557 48.5629 7.2226 48.5488 7.22712C47.9816 7.42373 47.7955 7.80791 47.7955 8.40226C47.796 9.96811 47.7965 11.534 47.7971 13.0998C47.7976 13.594 47.8357 13.9458 47.9116 14.1552C48.3914 15.4795 50.1895 15.4403 51.3737 15.4411C57.032 15.4446 60.648 15.4451 62.2219 15.4426C62.4374 15.4421 62.7663 15.4325 63.2087 15.4139C63.219 15.4136 63.2289 15.4093 63.2364 15.402C63.2439 15.3946 63.2485 15.3847 63.2494 15.374C63.5944 11.597 65.5748 8.23201 69.5266 7.41243C71.5447 6.99435 73.8287 7.0855 75.7315 7.10433C75.743 7.10429 75.754 7.10629 75.7622 7.10993C75.7705 7.11357 75.7754 7.11857 75.776 7.12392L75.7767 7.13296C75.7771 7.139 75.7758 7.14488 75.7731 7.14966C75.7704 7.15444 75.7663 7.15785 75.7616 7.15932C75.1922 7.34087 74.9903 7.72279 74.9895 8.31111C74.9895 10.6689 74.9905 13.026 74.9925 15.3823C74.9925 15.3933 74.9963 15.4038 75.0029 15.4116C75.0095 15.4194 75.0185 15.4237 75.0279 15.4237H82.8057C82.8151 15.4237 82.8241 15.4194 82.8308 15.4118C82.8374 15.4042 82.8411 15.3938 82.8411 15.3831C82.8441 10.581 82.8416 5.78004 82.8336 0.980038C82.8331 0.54162 82.6382 0.230006 82.249 0.0451977C82.2184 0.030634 82.2234 0.0155681 82.2641 0ZM71.8068 9.11714C68.1579 8.99435 65.8151 11.9872 65.6712 15.3853C65.671 15.3904 65.6718 15.3955 65.6734 15.4002C65.6751 15.405 65.6776 15.4093 65.6808 15.413C65.6841 15.4166 65.688 15.4195 65.6923 15.4215C65.6966 15.4235 65.7012 15.4245 65.7059 15.4245L71.8076 15.4252C71.8128 15.4252 71.818 15.4242 71.8229 15.4223C71.8277 15.4203 71.8321 15.4174 71.8358 15.4138C71.8395 15.4101 71.8425 15.4058 71.8445 15.4011C71.8465 15.3963 71.8475 15.3912 71.8475 15.3861L71.846 9.15254C71.846 9.14341 71.8419 9.13463 71.8346 9.12803C71.8273 9.12144 71.8173 9.11753 71.8068 9.11714Z" fill="#19406c"/>
<path d="M70.5767 6.04127C71.477 6.03969 72.2057 5.37435 72.2043 4.55518C72.2028 3.73601 71.4718 3.07322 70.5715 3.07479C69.6712 3.07636 68.9426 3.7417 68.944 4.56087C68.9454 5.38004 69.6764 6.04284 70.5767 6.04127Z" fill="#19406c"/>
<path d="M103.252 6.04126C104.153 6.03969 104.882 5.37435 104.881 4.55518C104.879 3.73601 104.148 3.07322 103.247 3.07479C102.346 3.07636 101.617 3.7417 101.619 4.56087C101.62 5.38004 102.352 6.04284 103.252 6.04126Z" fill="#19406c"/>
<path d="M143.108 15.4247L150.174 15.4254C150.182 15.4254 150.189 15.421 150.194 15.4133C150.199 15.4055 150.202 15.395 150.202 15.384C150.199 14.465 150.201 13.5477 150.208 12.6322C150.214 11.9688 150.248 11.4689 150.311 11.1324C151.459 4.94857 161.789 5.06307 162.849 11.2167C162.905 11.5402 162.934 12.0404 162.936 12.7173C162.94 13.8734 162.94 15.0297 162.937 16.1862C162.935 16.7173 163.148 17.0563 163.614 17.2913C163.629 17.2989 163.639 17.3104 163.645 17.326C163.646 17.3302 163.647 17.3348 163.646 17.3393C163.646 17.3438 163.644 17.3481 163.641 17.3518C163.638 17.3555 163.634 17.3586 163.63 17.3606C163.626 17.3627 163.621 17.3637 163.616 17.3636H145.386C145.366 17.3637 145.344 17.3539 145.325 17.3365C144.224 16.3264 142.727 16.2909 141.628 17.3388C141.622 17.344 141.613 17.3488 141.602 17.3528C141.591 17.3568 141.578 17.36 141.564 17.3621C141.505 17.3707 141.448 17.3656 141.393 17.3471C141.357 17.335 141.336 17.3257 141.33 17.3192C140.292 16.3022 138.697 16.3271 137.669 17.338C137.652 17.3545 137.63 17.3637 137.609 17.3636H115.688C115.673 17.3636 115.66 17.359 115.649 17.3508C115.638 17.3425 115.631 17.3311 115.628 17.3184C115.43 16.2437 115.23 15.1665 115.028 14.0868C115.014 14.0137 115.059 14.0326 115.078 14.0642C115.851 15.3282 117.277 15.4201 118.608 15.4216C122.254 15.4257 125.9 15.4257 129.545 15.4216C129.55 15.4216 129.554 15.4205 129.558 15.4185C129.562 15.4165 129.566 15.4135 129.568 15.41C129.571 15.4064 129.573 15.4022 129.573 15.3979C129.574 15.3935 129.574 15.389 129.573 15.3847C129.088 13.8593 128.369 12.1222 127.371 10.7595C126.44 9.48793 125.693 8.9433 124.077 8.92221C122.75 8.90564 121.424 8.90112 120.097 8.90865C120.085 8.90865 120.074 8.90536 120.066 8.89932C120.057 8.89328 120.051 8.88487 120.049 8.8755L119.512 6.40319C119.499 6.34795 119.512 6.34167 119.55 6.38436C119.907 6.7934 120.204 7.12033 120.829 7.13615C121.857 7.16176 122.886 7.17582 123.915 7.17833C124.632 7.17984 125.134 7.1954 125.42 7.22503C128.032 7.49271 129.966 8.8391 131.222 11.2642C132.048 12.8597 132.695 14.2352 133.165 15.3908C133.169 15.4007 133.177 15.4093 133.188 15.4154C133.198 15.4214 133.212 15.4247 133.225 15.4247L139.454 15.4239C139.464 15.4239 139.473 15.4196 139.479 15.412C139.486 15.4044 139.49 15.394 139.49 15.3832C139.496 11.5294 139.496 9.07764 139.49 8.02805C139.487 7.49999 139.164 7.30338 138.755 7.04801C138.73 7.03244 138.731 7.02466 138.757 7.02466H143.823C143.828 7.02465 143.833 7.0256 143.838 7.02741C143.842 7.02922 143.846 7.03184 143.849 7.03504C143.852 7.03824 143.854 7.04192 143.855 7.04576C143.856 7.0496 143.856 7.05347 143.854 7.05705C143.85 7.0676 143.84 7.07538 143.826 7.0804C143.167 7.30488 143.072 7.74631 143.071 8.42503C143.068 10.7442 143.069 13.0631 143.075 15.3817C143.075 15.3931 143.078 15.404 143.084 15.4121C143.091 15.4201 143.099 15.4247 143.108 15.4247ZM157.756 8.31731C155.368 7.50149 153.383 9.02164 153.333 11.4894C153.307 12.7801 153.305 14.0768 153.326 15.3795C153.326 15.3913 153.331 15.4026 153.34 15.4109C153.348 15.4192 153.36 15.4239 153.371 15.4239H159.774C159.785 15.4239 159.796 15.4191 159.804 15.4107C159.812 15.4022 159.816 15.3907 159.816 15.3787C159.811 14.0881 159.806 12.7974 159.8 11.5068C159.794 10.0717 159.176 8.80244 157.756 8.31731Z" fill="#19406c"/>
<path d="M139.502 20.2725C140.403 20.2756 141.136 19.6138 141.138 18.7942C141.141 17.9746 140.413 17.3077 139.513 17.3045C138.612 17.3014 137.88 17.9632 137.877 18.7828C137.874 19.6024 138.602 20.2693 139.502 20.2725Z" fill="#19406c"/>
<path d="M143.481 20.2736C144.382 20.2736 145.113 19.6092 145.113 18.7897C145.113 17.9701 144.382 17.3057 143.481 17.3057C142.58 17.3057 141.85 17.9701 141.85 18.7897C141.85 19.6092 142.58 20.2736 143.481 20.2736Z" fill="#19406c"/>
<path d="M111.728 39.9999H109.299C105.932 39.6564 102.475 38.0406 100.898 34.8933C98.9157 30.934 100.391 26.305 104.069 23.9539C107.969 21.4598 113.255 21.7897 117.375 23.4809C117.386 23.4851 117.395 23.493 117.402 23.5036C117.409 23.5142 117.413 23.5269 117.414 23.5404L117.6 27.4394C117.603 27.5098 117.592 27.5148 117.565 27.4545C116.201 24.3969 112.883 23.0839 109.692 23.6677C107.222 24.1204 105.315 25.517 104.369 27.8568C103.533 29.9208 103.684 32.4474 104.547 34.4526C105.978 37.7814 109.329 38.989 112.749 38.5513C113.568 38.4464 114.324 38.2023 115.018 37.8191C115.028 37.8137 115.037 37.8055 115.042 37.7956C115.048 37.7857 115.051 37.7743 115.051 37.7626C115.047 36.3786 115.046 34.997 115.048 33.618C115.05 32.9588 114.967 32.5332 114.389 32.2297C114.382 32.2261 114.377 32.2215 114.373 32.2167C114.37 32.2118 114.368 32.2071 114.37 32.2033L114.374 32.189C114.375 32.1877 114.376 32.1865 114.379 32.1857C114.382 32.1849 114.385 32.1845 114.388 32.1845H119.266C119.269 32.1844 119.272 32.1857 119.276 32.1882C119.28 32.1907 119.285 32.1944 119.289 32.1988L119.299 32.2078C119.3 32.2089 119.301 32.2103 119.301 32.2119C119.301 32.2135 119.301 32.2152 119.3 32.217C119.299 32.2187 119.298 32.2204 119.297 32.222C119.295 32.2235 119.293 32.2249 119.292 32.2259C118.847 32.4705 118.62 32.8474 118.611 33.3566C118.601 33.8964 118.601 35.0407 118.609 36.7894C118.611 37.3739 118.66 37.7543 119.02 38.1596C119.023 38.1637 119.026 38.1686 119.027 38.174C119.029 38.1793 119.029 38.1849 119.028 38.1903C119.027 38.1957 119.025 38.2008 119.021 38.2052C119.018 38.2095 119.013 38.213 119.008 38.2153C116.77 39.2677 114.18 39.7905 111.728 39.9999Z" fill="#19406c"/>
<path d="M53.1258 40.0021H53.0053C50.7846 35.4617 48.5734 30.9166 46.3718 26.3667C46.2633 26.1414 46.2144 25.8913 46.1383 25.6495C46.1255 25.6074 46.1021 25.6849 46.1021 25.6872C46.1021 29.9935 46.1021 34.3001 46.1021 38.607C46.1021 39.1288 46.3414 39.5154 46.82 39.767C46.8542 39.7851 46.8534 39.7942 46.8177 39.7942L43.8558 39.7949C43.7845 39.7949 43.7774 39.7796 43.8347 39.749C44.3982 39.4446 44.5021 39.0348 44.5014 38.3832C44.5009 33.5024 44.5011 28.6218 44.5021 23.7414C44.5021 23.1448 44.2113 22.7381 43.6742 22.4834C43.6637 22.4779 43.6574 22.4694 43.6554 22.4578C43.655 22.4542 43.6556 22.4506 43.6572 22.4472C43.6589 22.4437 43.6615 22.4405 43.6649 22.4378C43.6683 22.4351 43.6724 22.433 43.677 22.4315C43.6816 22.43 43.6866 22.4292 43.6916 22.4292H48.475C48.4928 22.4292 48.5102 22.434 48.525 22.4429C48.5398 22.4519 48.5514 22.4646 48.5586 22.4797L54.1066 34.1045C54.1207 34.1337 54.1338 34.1352 54.1458 34.109L59.51 22.4669C59.5152 22.4557 59.5233 22.4462 59.5334 22.4395C59.5436 22.4328 59.5553 22.4292 59.5673 22.4292H64.2C64.2488 22.4292 64.249 22.4415 64.2008 22.4661C63.5695 22.7923 63.5236 23.2541 63.5236 23.9697C63.5216 28.836 63.5208 33.7023 63.5213 38.5686C63.5213 39.1019 63.744 39.5026 64.1895 39.7708C64.2166 39.7874 64.2139 39.7957 64.1812 39.7957H59.2893C59.2351 39.7957 59.2341 39.7826 59.2863 39.7565C59.8309 39.4876 59.953 39.0996 59.9582 38.4827C59.9967 34.1942 59.9914 29.9034 59.9808 25.6149C59.9808 25.5448 60.0125 25.4612 60.0049 25.3799C59.9984 25.3055 59.9816 25.303 59.9545 25.3723C59.9289 25.4364 59.91 25.5268 59.8829 25.5855C57.6421 30.3961 55.3897 35.2016 53.1258 40.0021Z" fill="#19406c"/>
<path d="M67.0952 22.7918C67.045 22.743 66.8948 22.6303 66.6447 22.4535C66.6241 22.439 66.6264 22.4317 66.6515 22.4317L77.7784 22.4302C77.7887 22.4302 77.7985 22.434 77.8059 22.4409C77.8132 22.4478 77.8174 22.4572 77.8176 22.4671L77.902 24.6471C77.903 24.6752 77.8927 24.6765 77.8711 24.6509C77.4447 24.1517 76.9051 23.8735 76.2522 23.8162C74.5144 23.6648 72.7291 23.7243 70.9829 23.7153C70.9769 23.7153 70.9712 23.7172 70.967 23.7206C70.9627 23.724 70.9603 23.7286 70.9603 23.7334V29.5481C70.9603 29.5581 70.9642 29.5676 70.9712 29.5747C70.9781 29.5818 70.9875 29.5857 70.9973 29.5857C72.2417 29.5852 73.4899 29.5855 74.7419 29.5865C75.4018 29.5865 75.8138 29.4803 76.146 28.9289C76.1792 28.8741 76.1957 28.8796 76.1957 28.9454V31.5066C76.1957 31.5574 76.1819 31.5586 76.1543 31.5104C75.9095 31.0803 75.5509 30.8467 75.0425 30.8407C73.7372 30.8236 72.3926 30.8221 71.0086 30.8362C70.9957 30.8364 70.9834 30.8416 70.9744 30.8508C70.9654 30.86 70.9603 30.8723 70.9603 30.8852V38.3051C70.9603 38.3156 70.9642 38.3257 70.9712 38.3334C70.9781 38.3411 70.9877 38.3458 70.998 38.3466C72.8366 38.4902 74.6759 38.5017 76.5159 38.3812C77.6157 38.3096 78.5249 37.8991 79.1095 36.9432C79.1206 36.9251 79.1318 36.9158 79.1434 36.9153C79.1472 36.9152 79.1508 36.9166 79.1541 36.9193C79.1573 36.9219 79.16 36.9258 79.162 36.9307C79.164 36.9356 79.1653 36.9414 79.1657 36.9476C79.1661 36.9537 79.1657 36.9602 79.1645 36.9665L78.6048 39.7552C78.6026 39.7658 78.596 39.7753 78.586 39.7822C78.5759 39.7891 78.5632 39.7928 78.5498 39.7929L66.6432 39.7936C66.6096 39.7936 66.6043 39.7859 66.6274 39.7703C67.1178 39.4336 67.4003 39.2445 67.4003 38.5846C67.4013 33.6028 67.4015 28.6208 67.401 23.6385C67.401 23.3123 67.3121 23.0034 67.0952 22.7918Z" fill="#19406c"/>
<path d="M80.211 22.4853C80.1473 22.4496 80.152 22.4318 80.2253 22.4318C82.6128 22.4263 85.0173 22.422 87.4389 22.419C92.2012 22.4114 97.1459 24.1455 98.4212 29.3018C98.7218 30.5177 98.6547 31.8495 98.2946 33.0676C97.014 37.396 92.8235 39.4653 88.5907 39.7523C88.2703 39.7739 87.7686 39.786 87.0856 39.7885C84.7946 39.7955 82.5028 39.7965 80.2103 39.7915C80.135 39.791 80.1307 39.7734 80.1975 39.7387C80.7225 39.4645 80.8408 39.0653 80.8446 38.4627C80.8712 33.5607 80.8719 28.659 80.8468 23.7576C80.8438 23.1451 80.7353 22.776 80.211 22.4853ZM94.6517 29.903C94.2457 26.55 91.8058 24.2661 88.4935 23.8216C87.2702 23.6574 85.8321 23.7169 84.5033 23.7478C84.4822 23.7484 84.4621 23.7566 84.4473 23.7706C84.4325 23.7847 84.4243 23.8035 84.4242 23.8231L84.425 38.4416C84.425 38.4488 84.429 38.4557 84.4362 38.4607C84.4434 38.4658 84.4532 38.4687 84.4634 38.4687C85.579 38.4491 86.8257 38.5041 87.8299 38.4114C89.4803 38.2593 91.1421 37.7998 92.4174 36.6894C94.3225 35.0299 94.9478 32.3414 94.6517 29.903Z" fill="#19406c"/>
<path d="M130.184 39.9998H127.886C125.037 39.7377 122.251 38.3772 121.696 35.3384C121.634 34.9994 121.603 34.499 121.602 33.8371C121.6 30.4061 121.6 26.9753 121.601 23.5448C121.601 23.0251 121.189 22.7298 120.769 22.4541C120.744 22.4375 120.745 22.4292 120.772 22.4292H125.895C125.997 22.4292 126.006 22.4578 125.921 22.5151C125.385 22.8714 125.217 23.1057 125.217 23.7723C125.217 27.3299 125.218 30.8872 125.22 34.4443C125.223 37.6902 127.608 38.9113 130.526 38.5098C132.992 38.1708 134.038 36.4051 134.032 34.0623C134.023 30.6851 134.009 27.308 133.99 23.9313C133.987 23.2797 133.914 22.7757 133.277 22.4729C133.27 22.4698 133.265 22.4656 133.261 22.461C133.258 22.4564 133.257 22.4518 133.258 22.448L133.262 22.4337C133.263 22.4324 133.265 22.4313 133.267 22.4305C133.27 22.4296 133.273 22.4292 133.277 22.4292H136.422C136.447 22.4292 136.449 22.4382 136.428 22.4563C136.378 22.5005 136.324 22.5399 136.268 22.5746C135.904 22.7983 135.753 23.1976 135.751 23.63C135.745 25.2842 135.717 28.5058 135.669 33.2947C135.656 34.6823 135.619 35.8017 135.099 36.9241C134.162 38.949 132.27 39.7595 130.184 39.9998Z" fill="#19406c"/>
<path d="M138.525 22.4902C138.439 22.4495 138.441 22.4292 138.531 22.4292H143.427C143.452 22.4292 143.455 22.4392 143.436 22.4593C143.371 22.5309 143.271 22.555 143.207 22.6085C142.916 22.8531 142.77 23.1589 142.77 23.526C142.767 28.445 142.767 33.364 142.77 38.2831C142.77 38.2935 142.773 38.3037 142.78 38.3113C142.787 38.319 142.797 38.3237 142.807 38.3245C144.269 38.4626 145.826 38.4887 147.48 38.4028C148.819 38.3335 150.04 38.2115 150.747 36.9558C150.751 36.9483 150.756 36.9418 150.761 36.9372C150.765 36.9325 150.769 36.9301 150.772 36.9301H150.791C150.793 36.9302 150.795 36.9307 150.797 36.9317C150.799 36.9327 150.8 36.9341 150.802 36.9358C150.803 36.9375 150.804 36.9395 150.804 36.9417C150.805 36.9438 150.805 36.9461 150.804 36.9482L150.214 39.7603C150.212 39.7695 150.207 39.7777 150.199 39.7836C150.19 39.7894 150.18 39.7927 150.169 39.7927L138.508 39.7934C138.471 39.7934 138.466 39.7864 138.492 39.7723C139.046 39.4785 139.209 39.0763 139.209 38.4435C139.209 33.5606 139.209 28.6783 139.209 23.7964C139.208 23.1637 139.091 22.7576 138.525 22.4902Z" fill="#19406c"/>
<path d="M151.557 22.4895C151.462 22.4493 151.464 22.4292 151.563 22.4292H163.296C163.311 22.4292 163.325 22.4351 163.335 22.4456C163.346 22.4561 163.352 22.4705 163.353 22.4857L163.49 24.8631C163.492 24.9003 163.482 24.9008 163.46 24.8646C163.005 24.1196 162.276 23.8567 161.431 23.8379C159.581 23.7967 157.73 23.756 155.88 23.7158C155.877 23.7157 155.874 23.7161 155.871 23.7169C155.868 23.7177 155.866 23.719 155.864 23.7206C155.862 23.7222 155.86 23.7242 155.859 23.7263C155.858 23.7285 155.857 23.7308 155.857 23.7332V29.5478C155.857 29.5578 155.861 29.5674 155.868 29.5745C155.875 29.5815 155.884 29.5855 155.894 29.5855C157.171 29.585 158.451 29.5853 159.735 29.5863C160.43 29.587 160.861 29.5102 161.212 28.9279C161.245 28.8726 161.262 28.8784 161.262 28.9452V31.5064C161.262 31.5642 161.249 31.5679 161.221 31.5177C160.98 31.0703 160.595 30.8458 160.076 30.839C158.719 30.8234 157.325 30.8222 155.893 30.8352C155.883 30.8354 155.874 30.8392 155.868 30.8459C155.861 30.8525 155.857 30.8614 155.857 30.8706C155.857 33.2395 155.857 35.6139 155.857 37.9938C155.857 38.8631 155.812 39.3949 156.598 39.7663C156.634 39.7839 156.632 39.7927 156.592 39.7927H151.545C151.54 39.7927 151.535 39.7919 151.53 39.7903C151.526 39.7888 151.522 39.7865 151.518 39.7837C151.515 39.7808 151.513 39.7775 151.511 39.7738C151.509 39.7702 151.509 39.7663 151.509 39.7625C151.51 39.7505 151.517 39.7422 151.529 39.7377C152.137 39.5019 152.298 39.1049 152.298 38.4586C152.298 33.6048 152.298 28.7511 152.298 23.8974C152.298 23.2036 152.199 22.7622 151.557 22.4895Z" fill="#19406c"/>
<path d="M10.8056 31.3041C5.7209 30.9516 4.08399 35.7583 4.10056 39.8766C4.10056 39.8894 4.09715 39.9017 4.09108 39.9107C4.085 39.9197 4.07676 39.9248 4.06817 39.9248H2.8064C2.79714 39.9248 2.78825 39.9204 2.78163 39.9127C2.77501 39.9049 2.7712 39.8944 2.771 39.8834C2.73785 35.6461 4.38606 30.6804 9.25085 30.025C11.7435 29.689 14.2264 30.4777 15.7593 32.529C17.275 34.5576 17.8136 37.3719 17.7473 39.8729C17.7469 39.8867 17.742 39.8999 17.7337 39.9096C17.7254 39.9193 17.7143 39.9247 17.7028 39.9248H16.4599C16.4551 39.9248 16.4503 39.9238 16.4459 39.9216C16.4414 39.9195 16.4374 39.9164 16.434 39.9125C16.4307 39.9085 16.428 39.9039 16.4263 39.8988C16.4245 39.8936 16.4236 39.8882 16.4237 39.8826C16.484 36.1749 15.2652 31.6137 10.8056 31.3041Z" fill="#19406c"/>
<path d="M29.8625 31.3062C24.707 30.9958 23.2584 35.7002 23.2802 39.8463C23.2803 39.8566 23.2784 39.8667 23.2744 39.8762C23.2705 39.8857 23.2647 39.8944 23.2573 39.9017C23.25 39.9089 23.2412 39.9147 23.2316 39.9187C23.2219 39.9226 23.2116 39.9247 23.2011 39.9247H22.0147C22.0016 39.9247 21.989 39.9201 21.9795 39.9118C21.9701 39.9035 21.9646 39.8922 21.9642 39.8802C21.8836 35.9329 23.2667 31.032 27.7623 30.1175C28.7416 29.9181 29.7443 29.9068 30.7703 30.0836C35.4188 30.8851 36.991 35.8192 36.9292 39.8825C36.929 39.8937 36.925 39.9044 36.9181 39.9123C36.9112 39.9202 36.902 39.9246 36.8923 39.9247H35.6494C35.6402 39.9247 35.6314 39.9202 35.6249 39.9123C35.6184 39.9044 35.6147 39.8937 35.6147 39.8825C35.6253 36.2343 34.3251 31.5751 29.8625 31.3062Z" fill="#19406c"/>
<path d="M10.5798 34.03C7.31724 33.8929 6.67166 37.4205 6.75076 39.8748C6.75097 39.8812 6.75044 39.8877 6.74918 39.8937C6.74792 39.8997 6.74597 39.9052 6.74344 39.9098C6.74091 39.9145 6.73785 39.9182 6.73445 39.9207C6.73105 39.9232 6.72737 39.9245 6.72364 39.9245H5.51837C5.50656 39.9244 5.49521 39.9193 5.48666 39.9102C5.4781 39.9011 5.473 39.8887 5.47241 39.8755C5.2984 36.3426 6.7937 32.1332 11.2246 32.8089C14.5805 33.3196 15.4558 37.0733 15.3187 39.8725C15.3179 39.8866 15.3128 39.8998 15.3044 39.9095C15.296 39.9192 15.2849 39.9246 15.2735 39.9245H14.1052C14.0939 39.9245 14.0828 39.9219 14.0725 39.9168C14.0622 39.9118 14.0529 39.9045 14.0452 39.8953C14.0374 39.8861 14.0314 39.8752 14.0275 39.8632C14.0236 39.8513 14.0218 39.8386 14.0223 39.8258C14.1097 37.5268 13.55 34.155 10.5798 34.03Z" fill="#19406c"/>
<path d="M29.4859 34.0519C26.2023 33.9442 25.577 37.3634 25.6757 39.8764C25.676 39.8826 25.6751 39.8889 25.6729 39.8947C25.6708 39.9005 25.6675 39.9059 25.6633 39.9104C25.6591 39.9149 25.654 39.9185 25.6483 39.9209C25.6427 39.9234 25.6366 39.9246 25.6305 39.9246H24.4441C24.4321 39.9246 24.4205 39.9195 24.4118 39.9103C24.4031 39.9012 24.398 39.8888 24.3974 39.8757C24.2316 36.5197 25.5574 32.3495 29.7849 32.76C33.4023 33.1118 34.3718 36.8768 34.2482 39.884C34.2478 39.8949 34.2425 39.9053 34.2333 39.9129C34.2242 39.9205 34.212 39.9247 34.1992 39.9246H32.994C32.9885 39.9246 32.9831 39.9236 32.9781 39.9215C32.973 39.9194 32.9685 39.9164 32.9647 39.9126C32.9609 39.9088 32.9579 39.9043 32.956 39.8994C32.954 39.8945 32.9531 39.8892 32.9533 39.884C33.0392 37.5872 32.4817 34.1506 29.4859 34.0519Z" fill="#19406c"/>
</g>
<defs>
<clipPath id="clip0_12644_15744">
<rect width="163.691" height="40" fill="white"/>
</clipPath>
</defs>
</svg>
